<?xml version="1.0" encoding="UTF-8" standalone="no"?>
<!DOCTYPE svg PUBLIC "-//W3C//DTD SVG 1.1//EN"
 "http://www.w3.org/Graphics/SVG/1.1/DTD/svg11.dtd">
<!-- Generated by graphviz version 2.42.4 (0)
 -->
<!-- Title: ERD Pages: 1 -->
<svg width="1241pt" height="1044pt"
 viewBox="0.00 0.00 1240.60 1044.10" xmlns="http://www.w3.org/2000/svg" xmlns:xlink="http://www.w3.org/1999/xlink">
<g id="graph0" class="graph" transform="scale(1 1) rotate(0) translate(28.8 1015.3)">
<title>ERD</title>
<polygon fill="white" stroke="transparent" points="-28.8,28.8 -28.8,-1015.3 1211.8,-1015.3 1211.8,28.8 -28.8,28.8"/>
<!-- roles -->
<g id="node1" class="node">
<title>roles</title>
<polygon fill="#e0f2fe" stroke="transparent" points="1.5,-867.5 1.5,-907.5 238.5,-907.5 238.5,-867.5 1.5,-867.5"/>
<polygon fill="none" stroke="#cbd5e1" points="1.5,-867.5 1.5,-907.5 238.5,-907.5 238.5,-867.5 1.5,-867.5"/>
<text text-anchor="start" x="102.5" y="-889.3" font-family="Noto Sans CJK JP" font-weight="bold" font-size="14.00">roles</text>
<text text-anchor="start" x="90.5" y="-878.5" font-family="Noto Sans CJK JP" font-size="10.00">ロールマスタ</text>
<polygon fill="#fef3c7" stroke="transparent" points="1.5,-836.5 1.5,-867.5 36.5,-867.5 36.5,-836.5 1.5,-836.5"/>
<polygon fill="none" stroke="#cbd5e1" points="1.5,-836.5 1.5,-867.5 36.5,-867.5 36.5,-836.5 1.5,-836.5"/>
<text text-anchor="start" x="9.5" y="-849.3" font-family="Noto Sans CJK JP" font-weight="bold" font-size="14.00">PK</text>
<polygon fill="none" stroke="#cbd5e1" points="36.5,-836.5 36.5,-867.5 128.5,-867.5 128.5,-836.5 36.5,-836.5"/>
<text text-anchor="start" x="44.5" y="-849.3" font-family="Noto Sans CJK JP" font-weight="bold" font-size="14.00">id</text>
<polygon fill="none" stroke="#cbd5e1" points="128.5,-836.5 128.5,-867.5 238.5,-867.5 238.5,-836.5 128.5,-836.5"/>
<text text-anchor="start" x="136.5" y="-848.3" font-family="Noto Sans CJK JP" font-size="14.00">BIGINT</text>
<polygon fill="#f3e8ff" stroke="transparent" points="1.5,-805.5 1.5,-836.5 36.5,-836.5 36.5,-805.5 1.5,-805.5"/>
<polygon fill="none" stroke="#cbd5e1" points="1.5,-805.5 1.5,-836.5 36.5,-836.5 36.5,-805.5 1.5,-805.5"/>
<text text-anchor="start" x="9.5" y="-817.3" font-family="Noto Sans CJK JP" font-size="14.00">UK</text>
<polygon fill="none" stroke="#cbd5e1" points="36.5,-805.5 36.5,-836.5 128.5,-836.5 128.5,-805.5 36.5,-805.5"/>
<text text-anchor="start" x="44.5" y="-817.3" font-family="Noto Sans CJK JP" font-size="14.00">name</text>
<polygon fill="none" stroke="#cbd5e1" points="128.5,-805.5 128.5,-836.5 238.5,-836.5 238.5,-805.5 128.5,-805.5"/>
<text text-anchor="start" x="136.5" y="-817.3" font-family="Noto Sans CJK JP" font-size="14.00">VARCHAR(20)</text>
<polygon fill="none" stroke="#cbd5e1" points="1.5,-774.5 1.5,-805.5 36.5,-805.5 36.5,-774.5 1.5,-774.5"/>
<polygon fill="none" stroke="#cbd5e1" points="36.5,-774.5 36.5,-805.5 128.5,-805.5 128.5,-774.5 36.5,-774.5"/>
<text text-anchor="start" x="44.5" y="-786.3" font-family="Noto Sans CJK JP" font-size="14.00">description</text>
<polygon fill="none" stroke="#cbd5e1" points="128.5,-774.5 128.5,-805.5 238.5,-805.5 238.5,-774.5 128.5,-774.5"/>
<text text-anchor="start" x="136.5" y="-786.3" font-family="Noto Sans CJK JP" font-size="14.00">VARCHAR(100)</text>
<polygon fill="none" stroke="#cbd5e1" points="1.5,-743.5 1.5,-774.5 36.5,-774.5 36.5,-743.5 1.5,-743.5"/>
<polygon fill="none" stroke="#cbd5e1" points="36.5,-743.5 36.5,-774.5 128.5,-774.5 128.5,-743.5 36.5,-743.5"/>
<text text-anchor="start" x="44.5" y="-755.3" font-family="Noto Sans CJK JP" font-size="14.00">created_at</text>
<polygon fill="none" stroke="#cbd5e1" points="128.5,-743.5 128.5,-774.5 238.5,-774.5 238.5,-743.5 128.5,-743.5"/>
<text text-anchor="start" x="136.5" y="-755.3" font-family="Noto Sans CJK JP" font-size="14.00">DATETIME</text>
<polygon fill="none" stroke="#cbd5e1" points="1.5,-712.5 1.5,-743.5 36.5,-743.5 36.5,-712.5 1.5,-712.5"/>
<polygon fill="none" stroke="#cbd5e1" points="36.5,-712.5 36.5,-743.5 128.5,-743.5 128.5,-712.5 36.5,-712.5"/>
<text text-anchor="start" x="44.5" y="-724.3" font-family="Noto Sans CJK JP" font-size="14.00">updated_at</text>
<polygon fill="none" stroke="#cbd5e1" points="128.5,-712.5 128.5,-743.5 238.5,-743.5 238.5,-712.5 128.5,-712.5"/>
<text text-anchor="start" x="136.5" y="-724.3" font-family="Noto Sans CJK JP" font-size="14.00">DATETIME</text>
<polygon fill="none" stroke="#cbd5e1" points="0,-712 0,-909 239,-909 239,-712 0,-712"/>
</g>
<!-- users -->
<g id="node2" class="node">
<title>users</title>
<polygon fill="#dcfce7" stroke="transparent" points="396.5,-945.5 396.5,-985.5 660.5,-985.5 660.5,-945.5 396.5,-945.5"/>
<polygon fill="none" stroke="#cbd5e1" points="396.5,-945.5 396.5,-985.5 660.5,-985.5 660.5,-945.5 396.5,-945.5"/>
<text text-anchor="start" x="510" y="-967.3" font-family="Noto Sans CJK JP" font-weight="bold" font-size="14.00">users</text>
<text text-anchor="start" x="508.5" y="-956.5" font-family="Noto Sans CJK JP" font-size="10.00">ユーザー</text>
<polygon fill="#fef3c7" stroke="transparent" points="396.5,-914.5 396.5,-945.5 431.5,-945.5 431.5,-914.5 396.5,-914.5"/>
<polygon fill="none" stroke="#cbd5e1" points="396.5,-914.5 396.5,-945.5 431.5,-945.5 431.5,-914.5 396.5,-914.5"/>
<text text-anchor="start" x="404.5" y="-927.3" font-family="Noto Sans CJK JP" font-weight="bold" font-size="14.00">PK</text>
<polygon fill="none" stroke="#cbd5e1" points="431.5,-914.5 431.5,-945.5 550.5,-945.5 550.5,-914.5 431.5,-914.5"/>
<text text-anchor="start" x="439.5" y="-927.3" font-family="Noto Sans CJK JP" font-weight="bold" font-size="14.00">id</text>
<polygon fill="none" stroke="#cbd5e1" points="550.5,-914.5 550.5,-945.5 660.5,-945.5 660.5,-914.5 550.5,-914.5"/>
<text text-anchor="start" x="558.5" y="-926.3" font-family="Noto Sans CJK JP" font-size="14.00">BIGINT</text>
<polygon fill="none" stroke="#cbd5e1" points="396.5,-883.5 396.5,-914.5 431.5,-914.5 431.5,-883.5 396.5,-883.5"/>
<polygon fill="none" stroke="#cbd5e1" points="431.5,-883.5 431.5,-914.5 550.5,-914.5 550.5,-883.5 431.5,-883.5"/>
<text text-anchor="start" x="439.5" y="-895.3" font-family="Noto Sans CJK JP" font-size="14.00">username</text>
<polygon fill="none" stroke="#cbd5e1" points="550.5,-883.5 550.5,-914.5 660.5,-914.5 660.5,-883.5 550.5,-883.5"/>
<text text-anchor="start" x="558.5" y="-895.3" font-family="Noto Sans CJK JP" font-size="14.00">VARCHAR(50)</text>
<polygon fill="#f3e8ff" stroke="transparent" points="396.5,-852.5 396.5,-883.5 431.5,-883.5 431.5,-852.5 396.5,-852.5"/>
<polygon fill="none" stroke="#cbd5e1" points="396.5,-852.5 396.5,-883.5 431.5,-883.5 431.5,-852.5 396.5,-852.5"/>
<text text-anchor="start" x="404.5" y="-864.3" font-family="Noto Sans CJK JP" font-size="14.00">UK</text>
<polygon fill="none" stroke="#cbd5e1" points="431.5,-852.5 431.5,-883.5 550.5,-883.5 550.5,-852.5 431.5,-852.5"/>
<text text-anchor="start" x="439.5" y="-864.3" font-family="Noto Sans CJK JP" font-size="14.00">email</text>
<polygon fill="none" stroke="#cbd5e1" points="550.5,-852.5 550.5,-883.5 660.5,-883.5 660.5,-852.5 550.5,-852.5"/>
<text text-anchor="start" x="558.5" y="-864.3" font-family="Noto Sans CJK JP" font-size="14.00">VARCHAR(255)</text>
<polygon fill="none" stroke="#cbd5e1" points="396.5,-821.5 396.5,-852.5 431.5,-852.5 431.5,-821.5 396.5,-821.5"/>
<polygon fill="none" stroke="#cbd5e1" points="431.5,-821.5 431.5,-852.5 550.5,-852.5 550.5,-821.5 431.5,-821.5"/>
<text text-anchor="start" x="439.5" y="-833.3" font-family="Noto Sans CJK JP" font-size="14.00">password_hash</text>
<polygon fill="none" stroke="#cbd5e1" points="550.5,-821.5 550.5,-852.5 660.5,-852.5 660.5,-821.5 550.5,-821.5"/>
<text text-anchor="start" x="558.5" y="-833.3" font-family="Noto Sans CJK JP" font-size="14.00">VARCHAR(255)</text>
<polygon fill="none" stroke="#cbd5e1" points="396.5,-790.5 396.5,-821.5 431.5,-821.5 431.5,-790.5 396.5,-790.5"/>
<polygon fill="none" stroke="#cbd5e1" points="431.5,-790.5 431.5,-821.5 550.5,-821.5 550.5,-790.5 431.5,-790.5"/>
<text text-anchor="start" x="439.5" y="-802.3" font-family="Noto Sans CJK JP" font-size="14.00">height_cm</text>
<polygon fill="none" stroke="#cbd5e1" points="550.5,-790.5 550.5,-821.5 660.5,-821.5 660.5,-790.5 550.5,-790.5"/>
<text text-anchor="start" x="558.5" y="-802.3" font-family="Noto Sans CJK JP" font-size="14.00">DECIMAL(5,2)</text>
<polygon fill="none" stroke="#cbd5e1" points="396.5,-759.5 396.5,-790.5 431.5,-790.5 431.5,-759.5 396.5,-759.5"/>
<polygon fill="none" stroke="#cbd5e1" points="431.5,-759.5 431.5,-790.5 550.5,-790.5 550.5,-759.5 431.5,-759.5"/>
<text text-anchor="start" x="439.5" y="-771.3" font-family="Noto Sans CJK JP" font-size="14.00">weight_kg</text>
<polygon fill="none" stroke="#cbd5e1" points="550.5,-759.5 550.5,-790.5 660.5,-790.5 660.5,-759.5 550.5,-759.5"/>
<text text-anchor="start" x="558.5" y="-771.3" font-family="Noto Sans CJK JP" font-size="14.00">DECIMAL(5,2)</text>
<polygon fill="#dbeafe" stroke="transparent" points="396.5,-728.5 396.5,-759.5 431.5,-759.5 431.5,-728.5 396.5,-728.5"/>
<polygon fill="none" stroke="#cbd5e1" points="396.5,-728.5 396.5,-759.5 431.5,-759.5 431.5,-728.5 396.5,-728.5"/>
<text text-anchor="start" x="405.5" y="-740.3" font-family="Noto Sans CJK JP" font-size="14.00">FK</text>
<polygon fill="none" stroke="#cbd5e1" points="431.5,-728.5 431.5,-759.5 550.5,-759.5 550.5,-728.5 431.5,-728.5"/>
<text text-anchor="start" x="439.5" y="-740.3" font-family="Noto Sans CJK JP" font-size="14.00">role_id</text>
<polygon fill="none" stroke="#cbd5e1" points="550.5,-728.5 550.5,-759.5 660.5,-759.5 660.5,-728.5 550.5,-728.5"/>
<text text-anchor="start" x="558.5" y="-740.3" font-family="Noto Sans CJK JP" font-size="14.00">BIGINT</text>
<polygon fill="none" stroke="#cbd5e1" points="396.5,-697.5 396.5,-728.5 431.5,-728.5 431.5,-697.5 396.5,-697.5"/>
<polygon fill="none" stroke="#cbd5e1" points="431.5,-697.5 431.5,-728.5 550.5,-728.5 550.5,-697.5 431.5,-697.5"/>
<text text-anchor="start" x="439.5" y="-709.3" font-family="Noto Sans CJK JP" font-size="14.00">created_at</text>
<polygon fill="none" stroke="#cbd5e1" points="550.5,-697.5 550.5,-728.5 660.5,-728.5 660.5,-697.5 550.5,-697.5"/>
<text text-anchor="start" x="558.5" y="-709.3" font-family="Noto Sans CJK JP" font-size="14.00">DATETIME</text>
<polygon fill="none" stroke="#cbd5e1" points="396.5,-666.5 396.5,-697.5 431.5,-697.5 431.5,-666.5 396.5,-666.5"/>
<polygon fill="none" stroke="#cbd5e1" points="431.5,-666.5 431.5,-697.5 550.5,-697.5 550.5,-666.5 431.5,-666.5"/>
<text text-anchor="start" x="439.5" y="-678.3" font-family="Noto Sans CJK JP" font-size="14.00">updated_at</text>
<polygon fill="none" stroke="#cbd5e1" points="550.5,-666.5 550.5,-697.5 660.5,-697.5 660.5,-666.5 550.5,-666.5"/>
<text text-anchor="start" x="558.5" y="-678.3" font-family="Noto Sans CJK JP" font-size="14.00">DATETIME</text>
<polygon fill="none" stroke="#cbd5e1" points="396.5,-635.5 396.5,-666.5 431.5,-666.5 431.5,-635.5 396.5,-635.5"/>
<polygon fill="none" stroke="#cbd5e1" points="431.5,-635.5 431.5,-666.5 550.5,-666.5 550.5,-635.5 431.5,-635.5"/>
<text text-anchor="start" x="439.5" y="-647.3" font-family="Noto Sans CJK JP" font-size="14.00">deleted_at</text>
<polygon fill="none" stroke="#cbd5e1" points="550.5,-635.5 550.5,-666.5 660.5,-666.5 660.5,-635.5 550.5,-635.5"/>
<text text-anchor="start" x="558.5" y="-647.3" font-family="Noto Sans CJK JP" font-size="14.00">DATETIME</text>
<polygon fill="none" stroke="#cbd5e1" points="395.5,-634.5 395.5,-986.5 661.5,-986.5 661.5,-634.5 395.5,-634.5"/>
</g>
<!-- roles&#45;&gt;users -->
<g id="edge1" class="edge">
<title>roles&#45;&gt;users</title>
<path fill="none" stroke="#475569" stroke-width="1.4" d="M239.17,-810.5C239.17,-810.5 387.49,-810.5 387.49,-810.5"/>
<polygon fill="#475569" stroke="#475569" stroke-width="1.4" points="387.49,-813.3 395.49,-810.5 387.49,-807.7 387.49,-813.3"/>
<text text-anchor="middle" x="317" y="-829.3" font-family="Noto Sans CJK JP" font-size="14.00">1 : N</text>
<text text-anchor="middle" x="317" y="-814.3" font-family="Noto Sans CJK JP" font-size="14.00">users.role_id</text>
<text text-anchor="middle" x="377.36" y="-815.25" font-family="Noto Sans CJK JP" font-size="14.00">N</text>
<text text-anchor="middle" x="257.3" y="-798.35" font-family="Noto Sans CJK JP" font-size="14.00">1</text>
</g>
<!-- meal_records -->
<g id="node5" class="node">
<title>meal_records</title>
<polygon fill="#ede9fe" stroke="transparent" points="917.5,-596.5 917.5,-636.5 1182.5,-636.5 1182.5,-596.5 917.5,-596.5"/>
<polygon fill="none" stroke="#cbd5e1" points="917.5,-596.5 917.5,-636.5 1182.5,-636.5 1182.5,-596.5 917.5,-596.5"/>
<text text-anchor="start" x="1002.5" y="-618.3" font-family="Noto Sans CJK JP" font-weight="bold" font-size="14.00">meal_records</text>
<text text-anchor="start" x="1030" y="-607.5" font-family="Noto Sans CJK JP" font-size="10.00">食事記録</text>
<polygon fill="#fef3c7" stroke="transparent" points="917.5,-565.5 917.5,-596.5 952.5,-596.5 952.5,-565.5 917.5,-565.5"/>
<polygon fill="none" stroke="#cbd5e1" points="917.5,-565.5 917.5,-596.5 952.5,-596.5 952.5,-565.5 917.5,-565.5"/>
<text text-anchor="start" x="925.5" y="-578.3" font-family="Noto Sans CJK JP" font-weight="bold" font-size="14.00">PK</text>
<polygon fill="none" stroke="#cbd5e1" points="952.5,-565.5 952.5,-596.5 1072.5,-596.5 1072.5,-565.5 952.5,-565.5"/>
<text text-anchor="start" x="960.5" y="-578.3" font-family="Noto Sans CJK JP" font-weight="bold" font-size="14.00">id</text>
<polygon fill="none" stroke="#cbd5e1" points="1072.5,-565.5 1072.5,-596.5 1182.5,-596.5 1182.5,-565.5 1072.5,-565.5"/>
<text text-anchor="start" x="1080.5" y="-577.3" font-family="Noto Sans CJK JP" font-size="14.00">BIGINT</text>
<polygon fill="#dbeafe" stroke="transparent" points="917.5,-534.5 917.5,-565.5 952.5,-565.5 952.5,-534.5 917.5,-534.5"/>
<polygon fill="none" stroke="#cbd5e1" points="917.5,-534.5 917.5,-565.5 952.5,-565.5 952.5,-534.5 917.5,-534.5"/>
<text text-anchor="start" x="926.5" y="-546.3" font-family="Noto Sans CJK JP" font-size="14.00">FK</text>
<polygon fill="none" stroke="#cbd5e1" points="952.5,-534.5 952.5,-565.5 1072.5,-565.5 1072.5,-534.5 952.5,-534.5"/>
<text text-anchor="start" x="960.5" y="-546.3" font-family="Noto Sans CJK JP" font-size="14.00">user_id</text>
<polygon fill="none" stroke="#cbd5e1" points="1072.5,-534.5 1072.5,-565.5 1182.5,-565.5 1182.5,-534.5 1072.5,-534.5"/>
<text text-anchor="start" x="1080.5" y="-546.3" font-family="Noto Sans CJK JP" font-size="14.00">BIGINT</text>
<polygon fill="#dbeafe" stroke="transparent" points="917.5,-503.5 917.5,-534.5 952.5,-534.5 952.5,-503.5 917.5,-503.5"/>
<polygon fill="none" stroke="#cbd5e1" points="917.5,-503.5 917.5,-534.5 952.5,-534.5 952.5,-503.5 917.5,-503.5"/>
<text text-anchor="start" x="926.5" y="-515.3" font-family="Noto Sans CJK JP" font-size="14.00">FK</text>
<polygon fill="none" stroke="#cbd5e1" points="952.5,-503.5 952.5,-534.5 1072.5,-534.5 1072.5,-503.5 952.5,-503.5"/>
<text text-anchor="start" x="960.5" y="-515.3" font-family="Noto Sans CJK JP" font-size="14.00">food_id</text>
<polygon fill="none" stroke="#cbd5e1" points="1072.5,-503.5 1072.5,-534.5 1182.5,-534.5 1182.5,-503.5 1072.5,-503.5"/>
<text text-anchor="start" x="1080.5" y="-515.3" font-family="Noto Sans CJK JP" font-size="14.00">BIGINT NULL</text>
<polygon fill="none" stroke="#cbd5e1" points="917.5,-472.5 917.5,-503.5 952.5,-503.5 952.5,-472.5 917.5,-472.5"/>
<polygon fill="none" stroke="#cbd5e1" points="952.5,-472.5 952.5,-503.5 1072.5,-503.5 1072.5,-472.5 952.5,-472.5"/>
<text text-anchor="start" x="960.5" y="-484.3" font-family="Noto Sans CJK JP" font-size="14.00">food_name</text>
<polygon fill="none" stroke="#cbd5e1" points="1072.5,-472.5 1072.5,-503.5 1182.5,-503.5 1182.5,-472.5 1072.5,-472.5"/>
<text text-anchor="start" x="1080.5" y="-484.3" font-family="Noto Sans CJK JP" font-size="14.00">VARCHAR(100)</text>
<polygon fill="none" stroke="#cbd5e1" points="917.5,-441.5 917.5,-472.5 952.5,-472.5 952.5,-441.5 917.5,-441.5"/>
<polygon fill="none" stroke="#cbd5e1" points="952.5,-441.5 952.5,-472.5 1072.5,-472.5 1072.5,-441.5 952.5,-441.5"/>
<text text-anchor="start" x="960.5" y="-453.3" font-family="Noto Sans CJK JP" font-size="14.00">calories</text>
<polygon fill="none" stroke="#cbd5e1" points="1072.5,-441.5 1072.5,-472.5 1182.5,-472.5 1182.5,-441.5 1072.5,-441.5"/>
<text text-anchor="start" x="1080.5" y="-453.3" font-family="Noto Sans CJK JP" font-size="14.00">DECIMAL(7,2)</text>
<polygon fill="none" stroke="#cbd5e1" points="917.5,-410.5 917.5,-441.5 952.5,-441.5 952.5,-410.5 917.5,-410.5"/>
<polygon fill="none" stroke="#cbd5e1" points="952.5,-410.5 952.5,-441.5 1072.5,-441.5 1072.5,-410.5 952.5,-410.5"/>
<text text-anchor="start" x="960.5" y="-422.3" font-family="Noto Sans CJK JP" font-size="14.00">protein_g</text>
<polygon fill="none" stroke="#cbd5e1" points="1072.5,-410.5 1072.5,-441.5 1182.5,-441.5 1182.5,-410.5 1072.5,-410.5"/>
<text text-anchor="start" x="1080.5" y="-422.3" font-family="Noto Sans CJK JP" font-size="14.00">DECIMAL(6,2)</text>
<polygon fill="none" stroke="#cbd5e1" points="917.5,-379.5 917.5,-410.5 952.5,-410.5 952.5,-379.5 917.5,-379.5"/>
<polygon fill="none" stroke="#cbd5e1" points="952.5,-379.5 952.5,-410.5 1072.5,-410.5 1072.5,-379.5 952.5,-379.5"/>
<text text-anchor="start" x="960.5" y="-391.3" font-family="Noto Sans CJK JP" font-size="14.00">fat_g</text>
<polygon fill="none" stroke="#cbd5e1" points="1072.5,-379.5 1072.5,-410.5 1182.5,-410.5 1182.5,-379.5 1072.5,-379.5"/>
<text text-anchor="start" x="1080.5" y="-391.3" font-family="Noto Sans CJK JP" font-size="14.00">DECIMAL(6,2)</text>
<polygon fill="none" stroke="#cbd5e1" points="917.5,-348.5 917.5,-379.5 952.5,-379.5 952.5,-348.5 917.5,-348.5"/>
<polygon fill="none" stroke="#cbd5e1" points="952.5,-348.5 952.5,-379.5 1072.5,-379.5 1072.5,-348.5 952.5,-348.5"/>
<text text-anchor="start" x="960.5" y="-360.3" font-family="Noto Sans CJK JP" font-size="14.00">carbohydrate_g</text>
<polygon fill="none" stroke="#cbd5e1" points="1072.5,-348.5 1072.5,-379.5 1182.5,-379.5 1182.5,-348.5 1072.5,-348.5"/>
<text text-anchor="start" x="1080.5" y="-360.3" font-family="Noto Sans CJK JP" font-size="14.00">DECIMAL(6,2)</text>
<polygon fill="#dbeafe" stroke="transparent" points="917.5,-317.5 917.5,-348.5 952.5,-348.5 952.5,-317.5 917.5,-317.5"/>
<polygon fill="none" stroke="#cbd5e1" points="917.5,-317.5 917.5,-348.5 952.5,-348.5 952.5,-317.5 917.5,-317.5"/>
<text text-anchor="start" x="926.5" y="-329.3" font-family="Noto Sans CJK JP" font-size="14.00">FK</text>
<polygon fill="none" stroke="#cbd5e1" points="952.5,-317.5 952.5,-348.5 1072.5,-348.5 1072.5,-317.5 952.5,-317.5"/>
<text text-anchor="start" x="960.5" y="-329.3" font-family="Noto Sans CJK JP" font-size="14.00">meal_type_id</text>
<polygon fill="none" stroke="#cbd5e1" points="1072.5,-317.5 1072.5,-348.5 1182.5,-348.5 1182.5,-317.5 1072.5,-317.5"/>
<text text-anchor="start" x="1080.5" y="-329.3" font-family="Noto Sans CJK JP" font-size="14.00">BIGINT</text>
<polygon fill="none" stroke="#cbd5e1" points="917.5,-286.5 917.5,-317.5 952.5,-317.5 952.5,-286.5 917.5,-286.5"/>
<polygon fill="none" stroke="#cbd5e1" points="952.5,-286.5 952.5,-317.5 1072.5,-317.5 1072.5,-286.5 952.5,-286.5"/>
<text text-anchor="start" x="960.5" y="-298.3" font-family="Noto Sans CJK JP" font-size="14.00">recorded_at</text>
<polygon fill="none" stroke="#cbd5e1" points="1072.5,-286.5 1072.5,-317.5 1182.5,-317.5 1182.5,-286.5 1072.5,-286.5"/>
<text text-anchor="start" x="1080.5" y="-298.3" font-family="Noto Sans CJK JP" font-size="14.00">DATETIME</text>
<polygon fill="none" stroke="#cbd5e1" points="917.5,-255.5 917.5,-286.5 952.5,-286.5 952.5,-255.5 917.5,-255.5"/>
<polygon fill="none" stroke="#cbd5e1" points="952.5,-255.5 952.5,-286.5 1072.5,-286.5 1072.5,-255.5 952.5,-255.5"/>
<text text-anchor="start" x="960.5" y="-267.3" font-family="Noto Sans CJK JP" font-size="14.00">created_at</text>
<polygon fill="none" stroke="#cbd5e1" points="1072.5,-255.5 1072.5,-286.5 1182.5,-286.5 1182.5,-255.5 1072.5,-255.5"/>
<text text-anchor="start" x="1080.5" y="-267.3" font-family="Noto Sans CJK JP" font-size="14.00">DATETIME</text>
<polygon fill="none" stroke="#cbd5e1" points="917.5,-224.5 917.5,-255.5 952.5,-255.5 952.5,-224.5 917.5,-224.5"/>
<polygon fill="none" stroke="#cbd5e1" points="952.5,-224.5 952.5,-255.5 1072.5,-255.5 1072.5,-224.5 952.5,-224.5"/>
<text text-anchor="start" x="960.5" y="-236.3" font-family="Noto Sans CJK JP" font-size="14.00">updated_at</text>
<polygon fill="none" stroke="#cbd5e1" points="1072.5,-224.5 1072.5,-255.5 1182.5,-255.5 1182.5,-224.5 1072.5,-224.5"/>
<text text-anchor="start" x="1080.5" y="-236.3" font-family="Noto Sans CJK JP" font-size="14.00">DATETIME</text>
<polygon fill="none" stroke="#cbd5e1" points="917.5,-193.5 917.5,-224.5 952.5,-224.5 952.5,-193.5 917.5,-193.5"/>
<polygon fill="none" stroke="#cbd5e1" points="952.5,-193.5 952.5,-224.5 1072.5,-224.5 1072.5,-193.5 952.5,-193.5"/>
<text text-anchor="start" x="960.5" y="-205.3" font-family="Noto Sans CJK JP" font-size="14.00">deleted_at</text>
<polygon fill="none" stroke="#cbd5e1" points="1072.5,-193.5 1072.5,-224.5 1182.5,-224.5 1182.5,-193.5 1072.5,-193.5"/>
<text text-anchor="start" x="1080.5" y="-205.3" font-family="Noto Sans CJK JP" font-size="14.00">DATETIME</text>
<polygon fill="none" stroke="#cbd5e1" points="916,-193 916,-638 1183,-638 1183,-193 916,-193"/>
</g>
<!-- users&#45;&gt;meal_records -->
<g id="edge2" class="edge">
<title>users&#45;&gt;meal_records</title>
<path fill="none" stroke="#475569" stroke-width="1.4" d="M529,-634.22C529,-616.71 529,-605.25 529,-605.25 529,-605.25 907.8,-605.25 907.8,-605.25"/>
<polygon fill="#475569" stroke="#475569" stroke-width="1.4" points="907.8,-608.05 915.8,-605.25 907.8,-602.45 907.8,-608.05"/>
<text text-anchor="middle" x="789" y="-678.3" font-family="Noto Sans CJK JP" font-size="14.00">1 : N</text>
<text text-anchor="middle" x="789" y="-663.3" font-family="Noto Sans CJK JP" font-size="14.00">meal_records.user_id</text>
<text text-anchor="middle" x="897.67" y="-610" font-family="Noto Sans CJK JP" font-size="14.00">N</text>
<text text-anchor="middle" x="520.55" y="-612.4" font-family="Noto Sans CJK JP" font-size="14.00">1</text>
</g>
<!-- foods -->
<g id="node3" class="node">
<title>foods</title>
<polygon fill="#ffedd5" stroke="transparent" points="396.5,-534.5 396.5,-574.5 661.5,-574.5 661.5,-534.5 396.5,-534.5"/>
<polygon fill="none" stroke="#cbd5e1" points="396.5,-534.5 396.5,-574.5 661.5,-574.5 661.5,-534.5 396.5,-534.5"/>
<text text-anchor="start" x="509" y="-556.3" font-family="Noto Sans CJK JP" font-weight="bold" font-size="14.00">foods</text>
<text text-anchor="start" x="504.5" y="-545.5" font-family="Noto Sans CJK JP" font-size="10.00">食品マスタ</text>
<polygon fill="#fef3c7" stroke="transparent" points="396.5,-503.5 396.5,-534.5 431.5,-534.5 431.5,-503.5 396.5,-503.5"/>
<polygon fill="none" stroke="#cbd5e1" points="396.5,-503.5 396.5,-534.5 431.5,-534.5 431.5,-503.5 396.5,-503.5"/>
<text text-anchor="start" x="404.5" y="-516.3" font-family="Noto Sans CJK JP" font-weight="bold" font-size="14.00">PK</text>
<polygon fill="none" stroke="#cbd5e1" points="431.5,-503.5 431.5,-534.5 551.5,-534.5 551.5,-503.5 431.5,-503.5"/>
<text text-anchor="start" x="439.5" y="-516.3" font-family="Noto Sans CJK JP" font-weight="bold" font-size="14.00">id</text>
<polygon fill="none" stroke="#cbd5e1" points="551.5,-503.5 551.5,-534.5 661.5,-534.5 661.5,-503.5 551.5,-503.5"/>
<text text-anchor="start" x="559.5" y="-515.3" font-family="Noto Sans CJK JP" font-size="14.00">BIGINT</text>
<polygon fill="#f3e8ff" stroke="transparent" points="396.5,-472.5 396.5,-503.5 431.5,-503.5 431.5,-472.5 396.5,-472.5"/>
<polygon fill="none" stroke="#cbd5e1" points="396.5,-472.5 396.5,-503.5 431.5,-503.5 431.5,-472.5 396.5,-472.5"/>
<text text-anchor="start" x="404.5" y="-484.3" font-family="Noto Sans CJK JP" font-size="14.00">UK</text>
<polygon fill="none" stroke="#cbd5e1" points="431.5,-472.5 431.5,-503.5 551.5,-503.5 551.5,-472.5 431.5,-472.5"/>
<text text-anchor="start" x="439.5" y="-484.3" font-family="Noto Sans CJK JP" font-size="14.00">name</text>
<polygon fill="none" stroke="#cbd5e1" points="551.5,-472.5 551.5,-503.5 661.5,-503.5 661.5,-472.5 551.5,-472.5"/>
<text text-anchor="start" x="559.5" y="-484.3" font-family="Noto Sans CJK JP" font-size="14.00">VARCHAR(100)</text>
<polygon fill="none" stroke="#cbd5e1" points="396.5,-441.5 396.5,-472.5 431.5,-472.5 431.5,-441.5 396.5,-441.5"/>
<polygon fill="none" stroke="#cbd5e1" points="431.5,-441.5 431.5,-472.5 551.5,-472.5 551.5,-441.5 431.5,-441.5"/>
<text text-anchor="start" x="439.5" y="-453.3" font-family="Noto Sans CJK JP" font-size="14.00">calories</text>
<polygon fill="none" stroke="#cbd5e1" points="551.5,-441.5 551.5,-472.5 661.5,-472.5 661.5,-441.5 551.5,-441.5"/>
<text text-anchor="start" x="559.5" y="-453.3" font-family="Noto Sans CJK JP" font-size="14.00">DECIMAL(7,2)</text>
<polygon fill="none" stroke="#cbd5e1" points="396.5,-410.5 396.5,-441.5 431.5,-441.5 431.5,-410.5 396.5,-410.5"/>
<polygon fill="none" stroke="#cbd5e1" points="431.5,-410.5 431.5,-441.5 551.5,-441.5 551.5,-410.5 431.5,-410.5"/>
<text text-anchor="start" x="439.5" y="-422.3" font-family="Noto Sans CJK JP" font-size="14.00">protein_g</text>
<polygon fill="none" stroke="#cbd5e1" points="551.5,-410.5 551.5,-441.5 661.5,-441.5 661.5,-410.5 551.5,-410.5"/>
<text text-anchor="start" x="559.5" y="-422.3" font-family="Noto Sans CJK JP" font-size="14.00">DECIMAL(6,2)</text>
<polygon fill="none" stroke="#cbd5e1" points="396.5,-379.5 396.5,-410.5 431.5,-410.5 431.5,-379.5 396.5,-379.5"/>
<polygon fill="none" stroke="#cbd5e1" points="431.5,-379.5 431.5,-410.5 551.5,-410.5 551.5,-379.5 431.5,-379.5"/>
<text text-anchor="start" x="439.5" y="-391.3" font-family="Noto Sans CJK JP" font-size="14.00">fat_g</text>
<polygon fill="none" stroke="#cbd5e1" points="551.5,-379.5 551.5,-410.5 661.5,-410.5 661.5,-379.5 551.5,-379.5"/>
<text text-anchor="start" x="559.5" y="-391.3" font-family="Noto Sans CJK JP" font-size="14.00">DECIMAL(6,2)</text>
<polygon fill="none" stroke="#cbd5e1" points="396.5,-348.5 396.5,-379.5 431.5,-379.5 431.5,-348.5 396.5,-348.5"/>
<polygon fill="none" stroke="#cbd5e1" points="431.5,-348.5 431.5,-379.5 551.5,-379.5 551.5,-348.5 431.5,-348.5"/>
<text text-anchor="start" x="439.5" y="-360.3" font-family="Noto Sans CJK JP" font-size="14.00">carbohydrate_g</text>
<polygon fill="none" stroke="#cbd5e1" points="551.5,-348.5 551.5,-379.5 661.5,-379.5 661.5,-348.5 551.5,-348.5"/>
<text text-anchor="start" x="559.5" y="-360.3" font-family="Noto Sans CJK JP" font-size="14.00">DECIMAL(6,2)</text>
<polygon fill="none" stroke="#cbd5e1" points="396.5,-317.5 396.5,-348.5 431.5,-348.5 431.5,-317.5 396.5,-317.5"/>
<polygon fill="none" stroke="#cbd5e1" points="431.5,-317.5 431.5,-348.5 551.5,-348.5 551.5,-317.5 431.5,-317.5"/>
<text text-anchor="start" x="439.5" y="-329.3" font-family="Noto Sans CJK JP" font-size="14.00">created_at</text>
<polygon fill="none" stroke="#cbd5e1" points="551.5,-317.5 551.5,-348.5 661.5,-348.5 661.5,-317.5 551.5,-317.5"/>
<text text-anchor="start" x="559.5" y="-329.3" font-family="Noto Sans CJK JP" font-size="14.00">DATETIME</text>
<polygon fill="none" stroke="#cbd5e1" points="396.5,-286.5 396.5,-317.5 431.5,-317.5 431.5,-286.5 396.5,-286.5"/>
<polygon fill="none" stroke="#cbd5e1" points="431.5,-286.5 431.5,-317.5 551.5,-317.5 551.5,-286.5 431.5,-286.5"/>
<text text-anchor="start" x="439.5" y="-298.3" font-family="Noto Sans CJK JP" font-size="14.00">updated_at</text>
<polygon fill="none" stroke="#cbd5e1" points="551.5,-286.5 551.5,-317.5 661.5,-317.5 661.5,-286.5 551.5,-286.5"/>
<text text-anchor="start" x="559.5" y="-298.3" font-family="Noto Sans CJK JP" font-size="14.00">DATETIME</text>
<polygon fill="none" stroke="#cbd5e1" points="396.5,-255.5 396.5,-286.5 431.5,-286.5 431.5,-255.5 396.5,-255.5"/>
<polygon fill="none" stroke="#cbd5e1" points="431.5,-255.5 431.5,-286.5 551.5,-286.5 551.5,-255.5 431.5,-255.5"/>
<text text-anchor="start" x="439.5" y="-267.3" font-family="Noto Sans CJK JP" font-size="14.00">deleted_at</text>
<polygon fill="none" stroke="#cbd5e1" points="551.5,-255.5 551.5,-286.5 661.5,-286.5 661.5,-255.5 551.5,-255.5"/>
<text text-anchor="start" x="559.5" y="-267.3" font-family="Noto Sans CJK JP" font-size="14.00">DATETIME</text>
<polygon fill="none" stroke="#cbd5e1" points="395,-255 395,-576 662,-576 662,-255 395,-255"/>
</g>
<!-- foods&#45;&gt;meal_records -->
<g id="edge3" class="edge">
<title>foods&#45;&gt;meal_records</title>
<path fill="none" stroke="#475569" stroke-width="1.4" stroke-dasharray="5,2" d="M662.33,-415.5C662.33,-415.5 907.62,-415.5 907.62,-415.5"/>
<polygon fill="#475569" stroke="#475569" stroke-width="1.4" points="907.62,-418.3 915.62,-415.5 907.62,-412.7 907.62,-418.3"/>
<text text-anchor="middle" x="789" y="-434.3" font-family="Noto Sans CJK JP" font-size="14.00">1 : 0..N</text>
<text text-anchor="middle" x="789" y="-419.3" font-family="Noto Sans CJK JP" font-size="14.00">meal_records.food_id</text>
<text text-anchor="middle" x="897.49" y="-420.25" font-family="Noto Sans CJK JP" font-size="14.00">0..N</text>
<text text-anchor="middle" x="680.46" y="-403.35" font-family="Noto Sans CJK JP" font-size="14.00">1</text>
</g>
<!-- meal_types -->
<g id="node4" class="node">
<title>meal_types</title>
<polygon fill="#fce7f3" stroke="transparent" points="414.5,-155.5 414.5,-195.5 643.5,-195.5 643.5,-155.5 414.5,-155.5"/>
<polygon fill="none" stroke="#cbd5e1" points="414.5,-155.5 414.5,-195.5 643.5,-195.5 643.5,-155.5 414.5,-155.5"/>
<text text-anchor="start" x="488" y="-177.3" font-family="Noto Sans CJK JP" font-weight="bold" font-size="14.00">meal_types</text>
<text text-anchor="start" x="494.5" y="-166.5" font-family="Noto Sans CJK JP" font-size="10.00">食事区分マスタ</text>
<polygon fill="#fef3c7" stroke="transparent" points="414.5,-124.5 414.5,-155.5 449.5,-155.5 449.5,-124.5 414.5,-124.5"/>
<polygon fill="none" stroke="#cbd5e1" points="414.5,-124.5 414.5,-155.5 449.5,-155.5 449.5,-124.5 414.5,-124.5"/>
<text text-anchor="start" x="422.5" y="-137.3" font-family="Noto Sans CJK JP" font-weight="bold" font-size="14.00">PK</text>
<polygon fill="none" stroke="#cbd5e1" points="449.5,-124.5 449.5,-155.5 541.5,-155.5 541.5,-124.5 449.5,-124.5"/>
<text text-anchor="start" x="457.5" y="-137.3" font-family="Noto Sans CJK JP" font-weight="bold" font-size="14.00">id</text>
<polygon fill="none" stroke="#cbd5e1" points="541.5,-124.5 541.5,-155.5 643.5,-155.5 643.5,-124.5 541.5,-124.5"/>
<text text-anchor="start" x="549.5" y="-136.3" font-family="Noto Sans CJK JP" font-size="14.00">BIGINT</text>
<polygon fill="#f3e8ff" stroke="transparent" points="414.5,-93.5 414.5,-124.5 449.5,-124.5 449.5,-93.5 414.5,-93.5"/>
<polygon fill="none" stroke="#cbd5e1" points="414.5,-93.5 414.5,-124.5 449.5,-124.5 449.5,-93.5 414.5,-93.5"/>
<text text-anchor="start" x="422.5" y="-105.3" font-family="Noto Sans CJK JP" font-size="14.00">UK</text>
<polygon fill="none" stroke="#cbd5e1" points="449.5,-93.5 449.5,-124.5 541.5,-124.5 541.5,-93.5 449.5,-93.5"/>
<text text-anchor="start" x="457.5" y="-105.3" font-family="Noto Sans CJK JP" font-size="14.00">name</text>
<polygon fill="none" stroke="#cbd5e1" points="541.5,-93.5 541.5,-124.5 643.5,-124.5 643.5,-93.5 541.5,-93.5"/>
<text text-anchor="start" x="549.5" y="-105.3" font-family="Noto Sans CJK JP" font-size="14.00">VARCHAR(20)</text>
<polygon fill="none" stroke="#cbd5e1" points="414.5,-62.5 414.5,-93.5 449.5,-93.5 449.5,-62.5 414.5,-62.5"/>
<polygon fill="none" stroke="#cbd5e1" points="449.5,-62.5 449.5,-93.5 541.5,-93.5 541.5,-62.5 449.5,-62.5"/>
<text text-anchor="start" x="457.5" y="-74.3" font-family="Noto Sans CJK JP" font-size="14.00">sort_order</text>
<polygon fill="none" stroke="#cbd5e1" points="541.5,-62.5 541.5,-93.5 643.5,-93.5 643.5,-62.5 541.5,-62.5"/>
<text text-anchor="start" x="549.5" y="-74.3" font-family="Noto Sans CJK JP" font-size="14.00">INT</text>
<polygon fill="none" stroke="#cbd5e1" points="414.5,-31.5 414.5,-62.5 449.5,-62.5 449.5,-31.5 414.5,-31.5"/>
<polygon fill="none" stroke="#cbd5e1" points="449.5,-31.5 449.5,-62.5 541.5,-62.5 541.5,-31.5 449.5,-31.5"/>
<text text-anchor="start" x="457.5" y="-43.3" font-family="Noto Sans CJK JP" font-size="14.00">created_at</text>
<polygon fill="none" stroke="#cbd5e1" points="541.5,-31.5 541.5,-62.5 643.5,-62.5 643.5,-31.5 541.5,-31.5"/>
<text text-anchor="start" x="549.5" y="-43.3" font-family="Noto Sans CJK JP" font-size="14.00">DATETIME</text>
<polygon fill="none" stroke="#cbd5e1" points="414.5,-0.5 414.5,-31.5 449.5,-31.5 449.5,-0.5 414.5,-0.5"/>
<polygon fill="none" stroke="#cbd5e1" points="449.5,-0.5 449.5,-31.5 541.5,-31.5 541.5,-0.5 449.5,-0.5"/>
<text text-anchor="start" x="457.5" y="-12.3" font-family="Noto Sans CJK JP" font-size="14.00">updated_at</text>
<polygon fill="none" stroke="#cbd5e1" points="541.5,-0.5 541.5,-31.5 643.5,-31.5 643.5,-0.5 541.5,-0.5"/>
<text text-anchor="start" x="549.5" y="-12.3" font-family="Noto Sans CJK JP" font-size="14.00">DATETIME</text>
<polygon fill="none" stroke="#cbd5e1" points="413,0 413,-197 644,-197 644,0 413,0"/>
</g>
<!-- meal_types&#45;&gt;meal_records -->
<g id="edge4" class="edge">
<title>meal_types&#45;&gt;meal_records</title>
<path fill="none" stroke="#475569" stroke-width="1.4" d="M529,-197.07C529,-213.86 529,-226 529,-226 529,-226 907.8,-226 907.8,-226"/>
<polygon fill="#475569" stroke="#475569" stroke-width="1.4" points="907.8,-228.8 915.8,-226 907.8,-223.2 907.8,-228.8"/>
<text text-anchor="middle" x="789" y="-117.3" font-family="Noto Sans CJK JP" font-size="14.00">1 : N</text>
<text text-anchor="middle" x="789" y="-102.3" font-family="Noto Sans CJK JP" font-size="14.00">meal_records.meal_type_id</text>
<text text-anchor="middle" x="897.67" y="-230.75" font-family="Noto Sans CJK JP" font-size="14.00">N</text>
<text text-anchor="middle" x="537.45" y="-211.49" font-family="Noto Sans CJK JP" font-size="14.00">1</text>
</g>
</g>
</svg>
